PathFileType	4	(x/y/z)	S02_PSF_T05
DataRate	CameraRate	NumFrames	NumMarkers	Units	OrigDataRate	OrigDataStartFrame	OrigNumFrames
240	240	8	51	mm	240	206	410
Frame#	Time	Sternum			R.Acromium			L.Acromium			Top.Head			R.ASIS			L.ASIS			R.PSIS			L.PSIS			R.Great.Tro			L.Great.Tro			R.Iliac.Crest			L.Iliac.Crest			V.Sacral			R.Thigh.Upper.Post			R.Thigh.Lower.Ant			R.Thigh.Lower.Post			R.Thigh.Upper.Ant			R.Knee.Lat			R.Knee.Med			R.Shank.Upper.Post			R.Shank.Lower.Ant			R.Shank.Lower.Post			R.Shank.Upper.Ant			R.Ankle.Lat			R.Ankle.Med			R.Heel.Upper			R.Heel.Med			R.Heel.Lat			R.Toe.Lat			R.Toe.Med			R.Toe.Tip			L.Thigh.Upper.Post			L.Thigh.Lower.Ant			L.Thigh.Lower.Post			L.Thigh.Upper.Ant			L.Knee.Lat			L.Knee.Med			L.Shank.Upper.Post			L.Shank.Lower.Ant			L.Shank.Lower.Post			L.Shank.Upper.Ant			L.Ankle.Lat			L.Ankle.Med			L.Heel.Upper			L.Heel.Med			L.Heel.Lat			L.Toe.Lat			L.Toe.Med			L.Toe.Tip			Cervical.Spine			Back			
		X1	Y1	Z1	X2	Y2	Z2	X3	Y3	Z3	X4	Y4	Z4	X5	Y5	Z5	X6	Y6	Z6	X7	Y7	Z7	X8	Y8	Z8	X9	Y9	Z9	X10	Y10	Z10	X11	Y11	Z11	X12	Y12	Z12	X13	Y13	Z13	X14	Y14	Z14	X15	Y15	Z15	X16	Y16	Z16	X17	Y17	Z17	X18	Y18	Z18	X19	Y19	Z19	X20	Y20	Z20	X21	Y21	Z21	X22	Y22	Z22	X23	Y23	Z23	X24	Y24	Z24	X25	Y25	Z25	X26	Y26	Z26	X27	Y27	Z27	X28	Y28	Z28	X29	Y29	Z29	X30	Y30	Z30	X31	Y31	Z31	X32	Y32	Z32	X33	Y33	Z33	X34	Y34	Z34	X35	Y35	Z35	X36	Y36	Z36	X37	Y37	Z37	X38	Y38	Z38	X39	Y39	Z39	X40	Y40	Z40	X41	Y41	Z41	X42	Y42	Z42	X43	Y43	Z43	X44	Y44	Z44	X45	Y45	Z45	X46	Y46	Z46	X47	Y47	Z47	X48	Y48	Z48	X49	Y49	Z49	X50	Y50	Z50	X51	Y51	Z51	

206	0.85417	-380.18	1103.6	371.4	-478.03	1333.4	527.56	-491.24	1350.6	237.69	-433.93	1629.7	393.11	-401.41	943.52	475.58	-406.98	935.25	264.78	-617.4	980.76	430.17	-626.09	984.54	357.86	-475.73	821.24	567.11	-529.7	825.31	186.51	-504.93	982.61	539.4	-534.23	979.57	207.28	-648.22	935.7	391.17	-454.37	613.04	535.08	-398.5	541.58	487.94	-466.27	526.55	511.45	-391.1	628.11	511.27	-446.6	451.29	487.88	-465.77	447.37	346.47	-545.49	252.33	468.12	-480.28	166.53	439.98	-546.09	179.88	454.16	-475.15	233.94	460.38	-539.63	89.461	435.24	-536.21	105.98	351.23	-606.07	76.104	382.02	-593.64	44.12	353.37	-600.64	44.671	417.64	-437.31	39.699	451.38	-409.26	34.625	343.19	-358.66	61.389	396.81	-471.91	604.32	195.2	-374.84	554.89	176.85	-438.28	520.48	209.12	-415.61	641.08	168.08	-373.08	471.83	182.89	-336.89	468.85	320.94	-528.16	377.57	217.88	-521.38	266.1	216.59	-570.21	318.62	236.82	-484.88	331.79	200.05	-612.02	210.24	245.3	-586.19	193.21	321.46	-668.3	218.49	293.89	-670.16	193.47	328.62	-689.07	195.14	268.87	-582.19	81.806	208.82	-535.46	73.108	307.66	-491.01	49.224	249.48	-560.02	1405.6	392.39	-637.92	1154.1	390.84
207	0.85833	-375.23	1104.4	371.48	-472.73	1334.3	527.55	-486.46	1351.2	237.74	-428.66	1630.2	392.96	-396.9	944.32	476.17	-401.65	936.35	265.52	-612.51	981.45	429.86	-621	985.39	357.52	-471.89	821.5	567.16	-523.75	826.41	186.5	-500.44	983.15	539.45	-528.69	980.59	207.48	-643.29	936.53	390.69	-452.3	613.16	535.17	-397.01	541.12	488.25	-465	526.79	511.54	-388.75	627.54	511.63	-446.07	451.33	488.08	-464.8	447.53	346.5	-545.44	252.62	468.01	-480.27	166.69	440.15	-546.12	180.17	454.1	-475.09	234.09	460.55	-539.6	89.561	435.22	-535.99	106.15	351.23	-606.01	76.218	382.01	-593.65	44.212	353.31	-600.61	44.778	417.59	-437.31	39.69	451.38	-409.27	34.62	343.22	-358.64	61.368	396.84	-464.55	605.32	195.24	-367	556.66	177.39	-430.27	521.79	209.45	-408.48	642.48	168.24	-364.59	473.45	183.72	-328.72	471.11	321.63	-518.07	375.64	218.23	-508.67	264.39	217.04	-558.64	315.8	237.02	-473.69	330.88	200.57	-598.16	206.5	245.6	-571.92	189.84	321.71	-654.89	212.8	294.26	-655.98	187.35	328.73	-674.85	188.91	269.04	-564.49	79.34	208.31	-517.59	71.43	307.11	-472.38	49.315	248.79	-554.92	1406.2	392.48	-632.84	1154.7	391.31
208	0.8625	-370.28	1105.3	371.57	-467.44	1335.2	527.54	-481.68	1351.8	237.79	-423.4	1630.8	392.79	-392.4	945.1	476.76	-396.31	937.41	266.26	-607.63	982.07	429.52	-615.9	986.15	357.15	-468.01	821.72	567.2	-517.76	827.46	186.43	-495.97	983.65	539.48	-523.15	981.54	207.65	-638.35	937.28	390.17	-450.26	613.27	535.25	-395.54	540.64	488.56	-463.75	527.02	511.61	-386.41	626.95	512	-445.56	451.37	488.27	-463.87	447.67	346.52	-545.4	252.91	467.89	-480.28	166.85	440.31	-546.17	180.44	454.03	-475.05	234.24	460.71	-539.56	89.662	435.19	-535.77	106.33	351.22	-605.94	76.326	381.98	-593.65	44.3	353.24	-600.59	44.884	417.54	-437.3	39.682	451.37	-409.28	34.61	343.25	-358.63	61.348	396.87	-457.3	606.26	195.33	-359.29	558.33	177.97	-422.4	523.03	209.83	-401.44	643.81	168.42	-356.24	475.01	184.59	-320.75	473.28	322.34	-507.97	373.57	218.58	-495.9	262.63	217.48	-546.99	312.85	237.21	-462.51	329.9	201.1	-584.14	202.65	245.85	-557.5	186.39	321.95	-641.28	206.99	294.58	-641.56	181.16	328.79	-660.41	182.56	269.18	-546.66	76.854	207.83	-499.58	69.812	306.62	-453.68	49.458	248.17	-549.83	1406.7	392.57	-627.75	1155.2	391.76
209	0.86667	-365.31	1106.1	371.68	-462.16	1336.1	527.53	-476.89	1352.4	237.83	-418.14	1631.3	392.6	-387.93	945.84	477.33	-390.97	938.41	266.99	-602.77	982.63	429.15	-610.8	986.83	356.73	-464.08	821.91	567.24	-511.73	828.47	186.32	-491.52	984.1	539.49	-517.6	982.43	207.8	-633.41	937.95	389.62	-448.24	613.37	535.31	-394.09	540.15	488.88	-462.52	527.24	511.67	-384.09	626.34	512.36	-445.06	451.4	488.47	-462.95	447.79	346.54	-545.36	253.2	467.76	-480.3	167.01	440.45	-546.22	180.72	453.95	-475.02	234.39	460.86	-539.53	89.765	435.15	-535.53	106.51	351.2	-605.88	76.429	381.94	-593.64	44.384	353.18	-600.57	44.989	417.48	-437.3	39.674	451.36	-409.29	34.597	343.28	-358.61	61.327	396.9	-450.14	607.16	195.47	-351.69	559.91	178.59	-414.66	524.21	210.27	-394.48	645.05	168.62	-348.04	476.5	185.5	-312.97	475.34	323.1	-497.88	371.37	218.93	-483.08	260.8	217.91	-535.27	309.79	237.39	-451.33	328.84	201.62	-569.98	198.69	246.07	-542.95	182.88	322.17	-627.44	201.06	294.82	-626.92	174.91	328.8	-645.73	176.1	269.29	-528.68	74.362	207.41	-481.45	68.263	306.18	-434.91	49.661	247.63	-544.73	1407.2	392.65	-622.65	1155.8	392.2
210	0.87083	-360.33	1106.8	371.8	-456.88	1336.9	527.52	-472.1	1352.8	237.86	-412.89	1631.7	392.39	-383.47	946.54	477.89	-385.64	939.34	267.71	-597.9	983.11	428.74	-605.69	987.44	356.28	-460.11	822.05	567.29	-505.67	829.43	186.16	-487.1	984.51	539.49	-512.05	983.26	207.91	-628.46	938.54	389.04	-446.25	613.46	535.37	-392.66	539.66	489.2	-461.3	527.46	511.72	-381.79	625.72	512.72	-444.58	451.43	488.67	-462.06	447.89	346.55	-545.33	253.48	467.63	-480.33	167.18	440.59	-546.27	180.98	453.86	-475	234.55	461	-539.5	89.87	435.1	-535.28	106.69	351.16	-605.81	76.525	381.89	-593.62	44.464	353.11	-600.55	45.095	417.42	-437.3	39.665	451.35	-409.3	34.582	343.31	-358.6	61.306	396.94	-443.09	608	195.64	-344.22	561.39	179.25	-407.07	525.32	210.77	-387.61	646.19	168.85	-339.98	477.92	186.44	-305.4	477.28	323.88	-487.79	369.05	219.28	-470.19	258.92	218.33	-523.48	306.62	237.55	-440.15	327.72	202.14	-555.66	194.65	246.25	-528.25	179.32	322.36	-613.39	195.04	295	-612.04	168.62	328.78	-630.82	169.57	269.35	-510.56	71.877	207.03	-463.21	66.795	305.8	-416.08	49.931	247.17	-539.63	1407.7	392.71	-617.54	1156.2	392.62
211	0.875	-355.34	1107.5	371.93	-451.6	1337.7	527.51	-467.3	1353.3	237.88	-407.65	1632.1	392.16	-379.01	947.2	478.43	-380.31	940.21	268.41	-593.05	983.52	428.31	-600.58	987.95	355.8	-456.09	822.16	567.33	-499.59	830.35	185.94	-482.7	984.87	539.47	-506.49	984.03	208	-623.51	939.05	388.43	-444.27	613.54	535.43	-391.25	539.15	489.53	-460.09	527.67	511.76	-379.52	625.09	513.08	-444.1	451.46	488.87	-461.18	447.96	346.57	-545.29	253.76	467.5	-480.37	167.34	440.71	-546.33	181.24	453.77	-474.99	234.7	461.13	-539.47	89.974	435.05	-535.03	106.89	351.11	-605.75	76.616	381.82	-593.59	44.542	353.04	-600.52	45.202	417.35	-437.3	39.655	451.34	-409.32	34.566	343.34	-358.58	61.284	396.97	-436.14	608.77	195.86	-336.88	562.76	179.95	-399.62	526.34	211.31	-380.83	647.24	169.1	-332.08	479.25	187.41	-298.02	479.1	324.7	-477.68	366.6	219.64	-457.25	257	218.74	-511.62	303.35	237.72	-428.96	326.53	202.66	-541.18	190.54	246.39	-513.42	175.72	322.54	-599.1	188.95	295.11	-596.93	162.32	328.71	-615.67	162.99	269.38	-492.31	69.413	206.69	-444.87	65.417	305.47	-397.2	50.276	246.79	-534.53	1408.1	392.77	-612.42	1156.6	393.03
212	0.87917	-350.33	1108.2	372.07	-446.32	1338.4	527.5	-462.5	1353.6	237.9	-402.41	1632.5	391.92	-374.56	947.8	478.94	-374.98	941.01	269.09	-588.2	983.86	427.85	-595.46	988.39	355.29	-452.04	822.22	567.38	-493.48	831.21	185.69	-478.31	985.17	539.45	-500.92	984.72	208.07	-618.55	939.48	387.8	-442.3	613.61	535.47	-389.85	538.64	489.87	-458.89	527.87	511.81	-377.26	624.44	513.44	-443.63	451.48	489.07	-460.3	448.01	346.61	-545.25	254.03	467.37	-480.42	167.5	440.81	-546.38	181.49	453.67	-474.98	234.85	461.25	-539.44	90.078	435	-534.76	107.09	351.05	-605.7	76.703	381.73	-593.55	44.617	352.97	-600.5	45.309	417.27	-437.3	39.642	451.32	-409.34	34.55	343.37	-358.57	61.263	397.01	-429.29	609.48	196.11	-329.66	564.01	180.69	-392.31	527.28	211.89	-374.12	648.19	169.39	-324.32	480.5	188.41	-290.85	480.79	325.54	-467.57	364.03	219.99	-444.25	255.05	219.14	-499.7	299.98	237.87	-417.78	325.27	203.19	-526.55	186.37	246.48	-498.44	172.11	322.69	-584.59	182.8	295.16	-581.6	156.03	328.6	-600.28	156.37	269.35	-473.93	66.984	206.4	-426.43	64.139	305.2	-378.27	50.703	246.48	-529.41	1408.4	392.82	-607.28	1156.9	393.42
213	0.88333	-345.32	1108.8	372.21	-441.04	1339.1	527.49	-457.7	1353.9	237.91	-397.17	1632.7	391.65	-370.1	948.35	479.44	-369.65	941.73	269.74	-583.35	984.13	427.37	-590.33	988.74	354.75	-447.96	822.24	567.44	-487.35	832.01	185.38	-473.94	985.42	539.41	-495.34	985.35	208.11	-613.58	939.84	387.14	-440.35	613.68	535.52	-388.47	538.12	490.23	-457.7	528.07	511.86	-375.02	623.79	513.79	-443.16	451.5	489.27	-459.43	448.03	346.66	-545.21	254.29	467.26	-480.48	167.66	440.91	-546.42	181.73	453.57	-474.98	235	461.37	-539.41	90.182	434.94	-534.48	107.3	350.97	-605.64	76.786	381.64	-593.5	44.692	352.9	-600.48	45.417	417.18	-437.31	39.627	451.3	-409.35	34.537	343.4	-358.55	61.241	397.05	-422.54	610.11	196.4	-322.58	565.15	181.46	-385.15	528.13	212.51	-367.5	649.04	169.7	-316.73	481.64	189.44	-283.86	482.35	326.43	-457.43	361.36	220.35	-431.19	253.08	219.53	-487.7	296.52	238.03	-406.59	323.97	203.71	-511.75	182.17	246.54	-483.32	168.49	322.82	-569.85	176.62	295.15	-566.03	149.77	328.45	-584.64	149.74	269.27	-455.42	64.604	206.15	-407.91	62.972	304.98	-359.3	51.218	246.25	-524.29	1408.7	392.86	-602.13	1157.2	393.79
